<svg id="Layer_1" data-name="Layer 1" xmlns="http://www.w3.org/2000/svg" viewBox="0 0 417.05 417.05"><defs><style>.cls-1{fill:#fff;}</style></defs><path class="cls-1" d="M688.05,170.18V488.05H271V71H688.05v89.43c-2.15-10-8.34-17.36-15.67-24-2.3-2.1-4.42-4.4-6.62-6.6-15.41-15.37-33.86-15.32-49.33.16q-98.29,98.28-196.57,196.6a55.49,55.49,0,0,0-3.88,5.19c-1.48-2.31-2.09-3.76-3.12-4.79q-35.43-35.55-71-71c-13.59-13.51-32.75-13.42-46.42,0q-6.81,6.71-13.51,13.51c-13.51,13.69-13.74,32.84-.21,46.42q59.37,59.63,119,118.94a25,25,0,0,0,10,5.87c8.83,2.68,16-.79,22.3-7.11Q552.84,313.74,672.77,194C679.68,187.08,685.94,180,688.05,170.18Z" transform="translate(-271 -71)"/><path class="cls-1" d="M688.05,170.18c-2.11,9.85-8.37,16.9-15.28,23.79Q552.8,313.7,433.05,433.65c-6.31,6.32-13.47,9.79-22.3,7.11a25,25,0,0,1-10-5.87q-59.68-59.31-119-118.94c-13.53-13.58-13.3-32.73.21-46.42q6.72-6.79,13.51-13.51c13.67-13.45,32.83-13.54,46.42,0q35.6,35.4,71,71c1,1,1.64,2.48,3.12,4.79a55.49,55.49,0,0,1,3.88-5.19Q518.13,228.27,616.43,130c15.47-15.48,33.92-15.53,49.33-.16,2.2,2.2,4.32,4.5,6.62,6.6,7.33,6.64,13.52,14,15.67,24Z" transform="translate(-271 -71)"/></svg>